<svg width="48" height="48" viewBox="0 0 48 48" fill="none" xmlns="http://www.w3.org/2000/svg">
<rect width="48" height="48" rx="12" fill="white" fill-opacity="0.22"/>
<rect x="0.5" y="0.5" width="47" height="47" rx="11.5" stroke="url(#paint0_linear_948_12821)" stroke-opacity="0.6"/>
<path d="M31.5304 17.5303C31.8232 17.2374 31.8232 16.7626 31.5304 16.4697C31.2375 16.1768 30.7626 16.1768 30.4697 16.4697L24 22.9394L17.5303 16.4697C17.2374 16.1768 16.7626 16.1768 16.4697 16.4697C16.1768 16.7626 16.1768 17.2374 16.4697 17.5303L22.9394 24L16.4697 30.4697C16.1768 30.7626 16.1768 31.2374 16.4697 31.5303C16.7626 31.8232 17.2375 31.8232 17.5304 31.5303L24 25.0607L30.4697 31.5303C30.7626 31.8232 31.2374 31.8232 31.5303 31.5303C31.8232 31.2374 31.8232 30.7626 31.5303 30.4697L25.0607 24L31.5304 17.5303Z" fill="white"/>
<defs>
<linearGradient id="paint0_linear_948_12821" x1="0" y1="0" x2="50.4462" y2="2.72566" gradientUnits="userSpaceOnUse">
<stop stop-color="white"/>
<stop offset="1" stop-color="white" stop-opacity="0"/>
</linearGradient>
</defs>
</svg>
