<svg width="10" height="10" viewBox="0 0 10 10" fill="none" xmlns="http://www.w3.org/2000/svg">
<g clip-path="url(#clip0_567_14043)">
<path fill-rule="evenodd" clip-rule="evenodd" d="M4.0625 3.4375C4.0625 2.05679 5.18179 0.9375 6.5625 0.9375C7.94319 0.9375 9.0625 2.05679 9.0625 3.4375C9.0625 4.81821 7.94319 5.9375 6.5625 5.9375C6.28456 5.9375 6.01817 5.89233 5.76965 5.8093C5.60114 5.75299 5.41528 5.79681 5.28966 5.92243L4.64959 6.5625H3.90625C3.64737 6.5625 3.4375 6.77238 3.4375 7.03125V7.77456L3.39959 7.8125H2.65625C2.39737 7.8125 2.1875 8.02238 2.1875 8.28125V9.02456L2.14959 9.0625H1.09375C1.00746 9.0625 0.9375 8.99256 0.9375 8.90625V7.85044L4.07757 4.71034C4.20319 4.58472 4.24701 4.39886 4.19071 4.23035C4.10767 3.98182 4.0625 3.71541 4.0625 3.4375ZM6.5625 0C4.66402 0 3.125 1.53902 3.125 3.4375C3.125 3.7142 3.15779 3.98375 3.21983 4.24226L0.137294 7.32481C0.049386 7.41269 0 7.53194 0 7.65625V8.90625C0 9.51031 0.489689 10 1.09375 10H2.34375C2.46807 10 2.5873 9.95063 2.67521 9.86269L2.98771 9.55019C3.07561 9.46231 3.125 9.34306 3.125 9.21875V8.75H3.59375C3.71807 8.75 3.8373 8.70063 3.92521 8.61269L4.23771 8.30019C4.32561 8.21231 4.375 8.09306 4.375 7.96875V7.5H4.84375C4.96807 7.5 5.0873 7.45062 5.17521 7.36269L5.75774 6.78019C6.01625 6.84219 6.28581 6.875 6.5625 6.875C8.461 6.875 10 5.33598 10 3.4375C10 1.53902 8.461 0 6.5625 0ZM6.875 3.75C7.22019 3.75 7.5 3.47018 7.5 3.125C7.5 2.77982 7.22019 2.5 6.875 2.5C6.52981 2.5 6.25 2.77982 6.25 3.125C6.25 3.47018 6.52981 3.75 6.875 3.75Z" fill="white"/>
</g>
<defs>
<clipPath id="clip0_567_14043">
<rect width="10" height="10" fill="white"/>
</clipPath>
</defs>
</svg>
